<svg xmlns="http://www.w3.org/2000/svg" viewBox="0 0 620.74 302.32"><g id="Calque_2" data-name="Calque 2"><g id="Calque_2-2" data-name="Calque 2"><polygon points="272.58 151.16 316.22 75.58 359.85 0 284.27 0 240.64 75.58 197 151.16 153.37 226.74 109.73 302.32 185.31 302.32 228.95 226.74 272.58 151.16"/><polygon points="372.83 226.74 448.41 226.74 492.04 151.16 416.46 151.16 372.83 226.74"/><polygon points="469.58 0 394.01 0 350.37 75.58 306.73 151.16 263.1 226.74 219.46 302.32 295.04 302.32 338.68 226.74 382.31 151.16 419.59 86.59 380.73 75.58 501.53 75.58 577.11 75.58 620.74 0 545.16 0 469.58 0"/><polygon points="43.64 226.74 0 302.32 75.58 302.32 119.22 226.74 43.64 226.74"/></g></g></svg>